# AST/ASF file generated using VICON BodyLanguage
# -----------------------------------------------
:version 1.10
:name VICON
:units
  mass 1.0
  length 0.45
  angle deg
:documentation
   .ast/.asf automatically generated from VICON data using
   VICON BodyBuilder and BodyLanguage model FoxedUp or BRILLIANT.MOD
:root
   order TX TY TZ RX RY RZ
   axis XYZ
   position 0 0 0  
   orientation 0 0 0 
:bonedata
  begin
     id 1 
     name lhipjoint
     direction 0.588788 -0.725889 0.355548 
     length 2.37778 
     axis 0 0 0  XYZ
  end
  begin
     id 2 
     name lfemur
     direction 0.34202 -0.939693 0  
     length 6.86393  
     axis 0 0 20  XYZ
    dof rx ry rz
    limits (-160.0 20.0)
           (-70.0 70.0)
           (-60.0 70.0)
  end
  begin
     id 3 
     name ltibia
     direction 0.34202 -0.939693 0   
     length 7.32851   
     axis 0 0 20   XYZ
    dof rx
    limits (-10.0 170.0)
  end
  begin
     id 4 
     name lfoot
     direction 0.0626533 -0.172138 0.983078   
     length 1.98929   
     axis -90 7.62852e-016 20   XYZ
    dof rx rz
    limits (-45.0 90.0)
           (-70.0 20.0)
  end
  begin
     id 5 
     name ltoes
     direction 1.53647e-011 -4.21734e-011 1   
     length 1.00479   
     axis -90 7.62852e-016 20   XYZ
    dof rx
    limits (-90.0 20.0)
  end
  begin
     id 6 
     name rhipjoint
     direction -0.59141 -0.724168 0.354705   
     length 2.38343  
     axis 0 0 0  XYZ 
  end
  begin
     id 7 
     name rfemur
     direction -0.34202 -0.939693 0   
     length 6.95589   
     axis 0 0 -20   XYZ
    dof rx ry rz
    limits (-160.0 20.0)
           (-70.0 70.0)
           (-70.0 60.0)
  end
  begin
     id 8 
     name rtibia
     direction -0.34202 -0.939693 0   
     length 7.32327   
     axis 0 0 -20   XYZ
    dof rx
    limits (-10.0 170.0)
 end
 begin
     id 9 
     name rfoot
     direction -0.0660461 -0.18146 0.981178   
     length 1.85272  
     axis -90 -7.62852e-016 -20   XYZ
    dof rx rz
    limits (-45.0 90.0)
           (-20.0 70.0)
  end
  begin
     id 10 
     name rtoes
     direction -1.53586e-011 -4.21988e-011 1   
     length 0.93746   
     axis -90 -7.62852e-016 -20   XYZ
    dof rx
    limits (-90.0 20.0)
  end
  begin
     id 11 
     name lowerback
     direction -0.0107982 0.991059 0.13299   
     length 1.98691   
     axis 0 0 0   XYZ
    dof rx ry rz
    limits (-20.0 45.0)
           (-30.0 30.0)
           (-30.0 30.0)
  end
  begin
     id 12 
     name upperback
     direction 0.0076296 0.999916 0.0104576   
     length 1.99501   
     axis 0 0 0   XYZ
    dof rx ry rz
    limits (-20.0 45.0)
           (-30.0 30.0)
           (-30.0 30.0)
  end
  begin
     id 13 
     name thorax
     direction 0.01176 0.998615 -0.0512909   
     length 2.03144   
     axis 0 0 0   XYZ
    dof rx ry rz
    limits (-20.0 45.0)
           (-30.0 30.0)
           (-30.0 30.0)
  end
  begin
     id 14 
     name lowerneck
     direction -0.0171909 0.999644 0.0204011   
     length 1.71818   
     axis 0 0 0   XYZ
    dof rx ry rz
    limits (-20.0 45.0)
           (-30.0 30.0)
           (-30.0 30.0)
  end
  begin
     id 15 
     name upperneck
     direction 0.0250902 0.997482 -0.0663316   
     length 1.66199   
     axis 0 0 0   XYZ
    dof rx ry rz
    limits (-20.0 45.0)
           (-30.0 30.0)
           (-30.0 30.0)
  end
  begin
     id 16
     name head
     direction 0.00881535 0.99956 -0.0283365  
     length 1.81545  
     axis 0 0 0   XYZ
    dof rx ry rz
    limits (-20.0 45.0)
           (-30.0 30.0)
           (-30.0 30.0)
  end
  begin
     id 17 
     name lclavicle
     direction 0.840411 0.486876 -0.238035  
     length 3.30409  
     axis 0 0 0   XYZ
    dof ry rz
    limits (-20.0 10.0)
           (0.0 20.0)
  end
  begin
     id 18 
     name lhumerus
     direction 1 -4.48977e-011 -5.16239e-027   
     length 4.62672   
     axis 180 -30 -90   XYZ
    dof rx ry rz
    limits (-60.0 90.0)
           (-90.0 90.0)
           (-90.0 90.0)
  end
  begin
     id 19
     name lradius
     direction 1 -4.48977e-011 -8.71171e-027   
     length 3.11018   
     axis 180 -30 -90   XYZ
    dof rx
    limits (-10.0 170.0)
  end
  begin
     id 20
     name lwrist
     direction 1 -4.48912e-011 -1.03764e-026   
     length 1.55509   
     axis 9.09556e-015 90 90   XYZ
    dof ry
    limits (-180.0 0.0)
 end
  begin
     id 21 
     name lhand
     direction 1 -4.49072e-011 -2.07528e-026   
     length 0.743834   
     axis 1.3242e-014 90 90   XYZ
    dof rx rz
    limits (-90.0 90.0)
           (-45.0 45.0)
  end
  begin
     id 22 
     name lfingers
     direction 1 -4.48909e-011 -4.15056e-026   
     length 0.599698   
     axis 2.64841e-014 90 90   XYZ
    dof rx
    limits (0.0 90.0)
  end
  begin
     id 23
     name lthumb
     direction 0.707107 -6.35013e-011 0.707107   
     length 0.86105   
     axis -90 45 2.85299e-015   XYZ
    dof rx rz
    limits (-45.0 45.0)
           (-45.0 45.0)
  end
  begin
     id 24 
     name rclavicle
     direction -0.835208 0.500237 -0.228452   
     length 3.2716  
     axis 0 0 0   XYZ 
    dof ry rz
    limits (-10.0 20.0)
           (-20.0 0.0)
  end
  begin
     id 25 
     name rhumerus
     direction -1 -4.48978e-011 -5.1953e-028  
     length 4.55919   
     axis 180 30 90   XYZ
    dof rx ry rz
    limits (-90.0 60.0)
           (-90.0 90.0)
           (-90.0 90.0)
  end
  begin
     id 26 
     name rradius
     direction -1 -4.48961e-011 -5.99546e-027   
     length 3.22748   
     axis 180 30 90   XYZ
    dof rx
    limits (-10.0 170.0)
  end
  begin
     id 27 
     name rwrist
     direction -1 -4.48986e-011 -1.03764e-026   
     length 1.61374   
     axis 9.09556e-015 -90 -90   XYZ
    dof ry
    limits (-180.0 0.0)
  end
  begin
     id 28
     name rhand
     direction -1 -4.4899e-011 -2.07528e-026   
     length 0.700882   
     axis 1.3242e-014 -90 -90   XYZ
    dof rx rz
    limits (-90.0 90.0)
           (-45.0 45.0)
  end
  begin
     id 29
     name rfingers
     direction -1 -4.48991e-011 -4.15056e-026   
     length 0.565069   
     axis 2.64841e-014 -90 -90   XYZ
    dof rx
    limits (0.0 90.0)
  end
  begin
     id 30
     name rthumb
     direction -0.707107 -6.34804e-011 0.707107   
     length 0.811329   
     axis -90 -45 -2.85299e-015   XYZ
    dof rx rz
    limits (-45.0 45.0)
           (-45.0 45.0)
  end
:hierarchy
  begin
    root lhipjoint rhipjoint lowerback
    lhipjoint lfemur
    lfemur ltibia
    ltibia lfoot
    lfoot ltoes
    rhipjoint rfemur
    rfemur rtibia
    rtibia rfoot
    rfoot rtoes
    lowerback upperback
    upperback thorax
    thorax lowerneck lclavicle rclavicle
    lowerneck upperneck
    upperneck head
    lclavicle lhumerus
    lhumerus lradius
    lradius lwrist
    lwrist lhand lthumb
    lhand lfingers
    rclavicle rhumerus
    rhumerus rradius
    rradius rwrist
    rwrist rhand rthumb
    rhand rfingers
  end

#!OML:ASF F:\VICON\USERDATA\INSTALL\SteveWalk\SteveWalk.ASF
:FULLY-SPECIFIED
:DEGREES
503
root 4.23627 16.3882 25.9745 34.3512 -70.8226 -12.9832
lowerback -10.3215 -2.60091 -7.1466
upperback -1.44548 -2.76415 1.33747
thorax 4.67803 -1.5231 5.03511
lowerneck 2.71547 -8.40985 -7.16246
upperneck 8.85796 -11.7804 5.1645
head 3.23578 -5.99929 2.64858
rclavicle -1.59028e-014 -3.33958e-014
rhumerus -31.2322 21.6713 -94.7521
rradius 66.8185
rwrist -27.854
rhand -12.1496 -35.7799
rfingers 7.12502
rthumb 13.9128 -785.295
lclavicle -1.59028e-014 -3.33958e-014
lhumerus -44.5415 36.4072 49.775
lradius 10.619
lwrist -56.5345
lhand -11.8356 -21.2905
lfingers 7.12502
lthumb 14.2154 8.20302
rfemur -50.954 14.5411 15.8022
rtibia 46.0439
rfoot -12.4516 14.8634
rtoes -17.7046
lfemur -35.0518 -4.74537 -6.29641
ltibia 33.4208
lfoot -20.6774 -0.324782
ltoes -24.8663
504
root 4.27675 16.3837 26.0075 35.0901 -71.8592 -13.8151
lowerback -10.2052 -2.61551 -7.43882
upperback -1.5017 -2.7701 1.48734
thorax 4.57579 -1.52811 5.36405
lowerneck 2.84386 -8.27738 -7.21551
upperneck 8.85369 -11.5807 4.76828
head 3.16851 -5.91349 2.53891
rclavicle 4.31363e-014 2.38542e-014
rhumerus -31.4566 20.2455 -94.8401
rradius 65.142
rwrist -26.7423
rhand -13.749 -36.9248
rfingers 7.12502
rthumb 12.3711 -786.539
lclavicle 4.31363e-014 2.38542e-014
lhumerus -46.234 40.474 44.9662
lradius 10.2308
lwrist -60.5194
lhand -12.4619 -20.4706
lfingers 7.12502
lthumb 13.6118 9.06433
rfemur -50.3258 13.269 16.9311
rtibia 45.9152
rfoot -14.7217 11.3261
rtoes -26.4913
lfemur -34.848 -4.29446 -6.74558
ltibia 33.5518
lfoot -20.6772 0.857563
ltoes -27.8752
505
root 4.31013 16.384 26.044 37.5157 -72.3513 -16.5146
lowerback -10.4712 -2.27408 -6.20271
upperback -1.26378 -2.41713 1.31034
thorax 4.86396 -1.34312 4.51799
lowerneck 2.79029 -8.42021 -7.27132
upperneck 8.84707 -11.775 4.86729
head 3.20228 -6.00774 2.57132
rclavicle 1.74931e-014 -1.43125e-014
rhumerus -30.4072 16.549 -94.1712
rradius 61.6647
rwrist -24.9854
rhand -13.8575 -36.6511
rfingers 7.12502
rthumb 12.2665 -786.271
lclavicle 1.74931e-014 -1.43125e-014
lhumerus -45.6283 42.9222 42.3853
lradius 9.8998
lwrist -62.4655
lhand -12.9415 -19.4486
lfingers 7.12502
lthumb 13.1496 10.1168
rfemur -49.4638 12.4213 18.4198
rtibia 45.7408
rfoot -15.6983 8.23328
rtoes -29.4485
lfemur -34.6215 -3.78455 -6.50629
ltibia 33.6925
lfoot -20.592 2.52047
ltoes -32.1319
506
root 4.3381 16.4026 26.0868 38.4202 -73.0899 -17.6601
lowerback -10.4991 -2.22275 -5.77929
upperback -1.15979 -2.3867 1.20634
thorax 4.96353 -1.32319 4.17046
lowerneck 2.70274 -8.44638 -7.11068
upperneck 8.84345 -11.7945 4.74679
head 3.19627 -6.01382 2.49822
rclavicle -3.85642e-014 2.78299e-014
rhumerus -30.5504 15.2754 -93.6303
rradius 59.9669
rwrist -24.8951
rhand -13.0656 -37.0925
rfingers 7.12502
rthumb 13.03 -786.666
lclavicle -3.85642e-014 2.78299e-014
lhumerus -46.0995 45.6849 39.0523
lradius 9.63879
lwrist -64.3668
lhand -13.0595 -18.9226
lfingers 7.12502
lthumb 13.0359 10.65
rfemur -48.5351 11.6295 18.9848
rtibia 45.5661
rfoot -16.2386 5.88676
rtoes -28.9683
lfemur -34.1705 -4.4959 -6.28198
ltibia 33.7109
lfoot -20.6167 0.719782
ltoes -20.256
507
root 4.36378 16.4046 26.0963 40.6684 -74.8223 -19.6646
lowerback -10.9656 -2.02963 -6.31207
upperback -1.29039 -2.04288 1.16662
thorax 5.06221 -1.16537 4.47541
lowerneck 2.7366 -8.32844 -7.17095
upperneck 8.87226 -11.6368 4.66887
head 3.18723 -5.94119 2.4902
rclavicle -1.03368e-014 -5.56597e-015
rhumerus -30.7974 14.347 -93.1078
rradius 58.1922
rwrist -25.2262
rhand -13.97 -37.9283
rfingers 7.12502
rthumb 12.158 -787.555
lclavicle -1.03368e-014 -5.56597e-015
lhumerus -47.3999 48.1321 34.9872
lradius 9.31278
lwrist -66.0056
lhand -13.5509 -18.8666
lfingers 7.12502
lthumb 12.5621 10.7358
rfemur -48.4296 11.4081 19.1909
rtibia 45.4775
rfoot -16.4406 3.79446
rtoes -29.5587
lfemur -33.9823 -3.94374 -6.62227
ltibia 33.6767
lfoot -20.6237 0.61569
ltoes -15.0276
508
root 4.39255 16.4052 26.1467 39.3367 -75.0756 -18.7309
lowerback -9.94685 -2.72498 -7.01996
upperback -1.61478 -2.99884 1.72769
thorax 4.3388 -1.627 5.35706
lowerneck 2.9849 -7.96573 -7.12322
upperneck 8.8559 -11.1086 3.83395
head 3.03209 -5.70296 2.23577
rclavicle -3.75703e-014 2.94201e-014
rhumerus -28.4856 7.12867 -91.7024
rradius 51.118
rwrist -18.5267
rhand -14.9152 -36.3341
rfingers 7.12502
rthumb 11.2465 -786.013
lclavicle -3.75703e-014 2.94201e-014
lhumerus -51.9091 51.1588 29.3794
lradius 10.2564
lwrist -67.3287
lhand -13.8085 -18.7318
lfingers 7.12502
lthumb 12.3137 10.8856
rfemur -47.2779 9.56504 19.7285
rtibia 45.4165
rfoot -16.8469 1.07908
rtoes -31.7816
lfemur -33.4956 -4.28928 -7.27958
ltibia 33.5
lfoot -20.3488 2.69802
ltoes -23.8285
509
root 4.42632 16.3974 26.1826 39.9231 -75.5352 -19.4761
lowerback -10.4314 -2.30558 -5.67402
upperback -1.17495 -2.49957 0.897715
thorax 4.90417 -1.37229 3.76977
lowerneck 2.71296 -8.16748 -6.73094
upperneck 8.66274 -11.3711 4.19219
head 3.03069 -5.80459 2.26885
rclavicle -1.86858e-014 -3.18055e-014
rhumerus -29.8647 8.86798 -91.3711
rradius 52.8293
rwrist -22.2572
rhand -18.4585 -39.1981
rfingers 7.12502
rthumb 7.8278 -789.033
lclavicle -1.86858e-014 -3.18055e-014
lhumerus -48.5659 51.9369 29.9405
lradius 10.4811
lwrist -66.0191
lhand -14.1301 -18.1401
lfingers 7.12502
lthumb 12.0037 11.4957
rfemur -46.5701 8.14674 20.3211
rtibia 45.3768
rfoot -17.0256 -0.34475
rtoes -32.3449
lfemur -33.2934 -4.0685 -7.70181
ltibia 33.3589
lfoot -19.6494 5.57495
ltoes -33.2646
510
root 4.45571 16.4132 26.2129 40.9666 -76.2011 -20.5857
lowerback -10.5041 -2.27431 -5.37403
upperback -1.15668 -2.48074 0.749493
thorax 4.94232 -1.35691 3.44481
lowerneck 2.49742 -8.24737 -6.31347
upperneck 8.76845 -11.4835 4.33875
head 3.09392 -5.84289 2.22984
rclavicle 1.19271e-014 -2.38542e-014
rhumerus -29.7184 6.87561 -90.4449
rradius 50.8482
rwrist -21.6345
rhand -18.4071 -39.5095
rfingers 7.12502
rthumb 7.87742 -789.343
lclavicle 1.19271e-014 -2.38542e-014
lhumerus -43.6159 48.9976 34.1081
lradius 10.8617
lwrist -59.5248
lhand -14.9248 -17.0378
lfingers 7.12502
lthumb 11.2373 12.6412
rfemur -45.9265 6.98755 20.7055
rtibia 45.3043
rfoot -17.105 -0.516853
rtoes -31.1353
lfemur -33.016 -4.69303 -7.51015
ltibia 33.2133
lfoot -19.9533 4.18983
ltoes -23.9037
511
root 4.47203 16.4282 26.2259 44.1951 -77.2284 -23.5856
lowerback -11.0914 -2.12485 -5.24678
upperback -1.24278 -2.27217 0.803103
thorax 5.15482 -1.25679 3.44716
lowerneck 2.56815 -8.23943 -5.89354
upperneck 8.47301 -11.4282 3.91712
head 2.91285 -5.81062 2.03041
rclavicle -1.09332e-014 -1.59028e-014
rhumerus -29.5075 4.45872 -89.1855
rradius 48.4784
rwrist -20.5475
rhand -17.8989 -39.2392
rfingers 7.12502
rthumb 8.36795 -789.053
lclavicle -1.09332e-014 -1.59028e-014
lhumerus -43.1072 49.853 33.5086
lradius 11.5071
lwrist -58.1722
lhand -16.3263 -16.5161
lfingers 7.12502
lthumb 9.88536 13.2318
rfemur -45.6512 6.34443 21.1212
rtibia 45.2967
rfoot -17.1571 -0.29674
rtoes -28.5118
lfemur -32.9329 -4.45783 -7.37433
ltibia 33.1626
lfoot -20.1 3.9369
ltoes -17.8941
512
root 4.49618 16.4313 26.2265 47.5903 -78.6688 -26.7895
lowerback -11.4332 -1.98805 -5.7213
upperback -1.39721 -2.0251 0.89045
thorax 5.17644 -1.14514 3.84189
lowerneck 2.76777 -8.13682 -5.36427
upperneck 8.10418 -11.2379 3.30123
head 2.65726 -5.71379 1.76387
rclavicle 4.39314e-014 2.46493e-014
rhumerus -29.3146 1.82486 -87.8004
rradius 45.9668
rwrist -19.2023
rhand -18.142 -39.2042
rfingers 7.12502
rthumb 8.13324 -789.028
lclavicle 4.39314e-014 2.46493e-014
lhumerus -41.6876 49.4123 34.1265
lradius 12.2164
lwrist -55.0646
lhand -16.9747 -16.3676
lfingers 7.12502
lthumb 9.25971 13.4091
rfemur -45.4811 6.13747 21.0645
rtibia 45.4154
rfoot -17.0514 -0.507006
rtoes -26.3208
lfemur -32.782 -3.7695 -7.76838
ltibia 33.1189
lfoot -20.0538 4.56566
ltoes -17.3036
513
root 4.53237 16.4217 26.2274 49.578 -80.2502 -28.6825
lowerback -11.454 -1.89651 -6.66566
upperback -1.54088 -1.79043 0.846306
thorax 5.03658 -1.04213 4.37009
lowerneck 2.72672 -8.03958 -5.9665
upperneck 8.13071 -11.1433 3.72544
head 2.74202 -5.67586 2.00364
rclavicle -8.94531e-015 -2.3059e-014
rhumerus -29.1289 -1.03578 -86.4027
rradius 43.5875
rwrist -18.1933
rhand -19.1806 -39.4621
rfingers 7.12502
rthumb 7.13085 -789.322
lclavicle -8.94531e-015 -2.3059e-014
lhumerus -38.9382 47.4344 36.336
lradius 12.8796
lwrist -49.6108
lhand -17.4122 -15.9483
lfingers 7.12502
lthumb 8.83755 13.8466
rfemur -45.3401 5.65024 20.7025
rtibia 45.714
rfoot -17.009 -1.64007
rtoes -27.8919
lfemur -32.6099 -3.23746 -8.59733
ltibia 32.9992
lfoot -19.8233 5.25792
ltoes -17.3642
514
root 4.56884 16.4172 26.2248 54.3369 -81.6521 -33.0393
lowerback -11.85 -1.74868 -7.29551
upperback -1.78297 -1.50148 0.847365
thorax 4.97811 -0.906701 4.77231
lowerneck 2.74419 -8.02749 -5.89914
upperneck 8.00305 -11.1293 3.79796
head 2.69539 -5.66533 2.0196
rclavicle 7.15625e-015 2.8625e-014
rhumerus -29.1266 -3.34801 -85.0847
rradius 41.6178
rwrist -18.3905
rhand -20.1772 -40.1336
rfingers 7.12502
rthumb 6.16875 -790.024
lclavicle 7.15625e-015 2.8625e-014
lhumerus -36.6214 45.5619 37.937
lradius 13.6092
lwrist -45.0204
lhand -17.4677 -15.5515
lfingers 7.12502
lthumb 8.78407 14.2457
rfemur -45.5192 5.21402 20.5413
rtibia 46.055
rfoot -17.2278 -1.51569
rtoes -26.0535
lfemur -32.7661 -1.79446 -9.35937
ltibia 32.8326
lfoot -19.1995 6.83632
ltoes -23.9139
515
root 4.59827 16.4181 26.2627 56.654 -82.5757 -35.2957
lowerback -11.9471 -1.64489 -7.14548
upperback -1.89785 -1.3733 0.635934
thorax 4.88357 -0.834657 4.48323
lowerneck 2.79714 -8.05007 -5.23197
upperneck 7.75703 -11.124 3.45932
head 2.53155 -5.64993 1.80458
rclavicle 1.37161e-014 1.03368e-014
rhumerus -29.1147 -7.09381 -82.6641
rradius 38.5309
rwrist -12.3679
rhand -14.4846 -37.3598
rfingers 7.12502
rthumb 11.6618 -787.015
lclavicle 1.37161e-014 1.03368e-014
lhumerus -34.5052 43.6842 39.1584
lradius 14.3145
lwrist -40.7817
lhand -17.7108 -15.4385
lfingers 7.12502
lthumb 8.54942 14.3684
rfemur -45.1052 4.22912 20.0641
rtibia 46.3674
rfoot -17.824 0.0635556
rtoes -17.4761
lfemur -32.7122 -1.06299 -10.3789
ltibia 32.6851
lfoot -17.6261 10.0512
ltoes -35.2099
